<mxfile host="app.diagrams.net" modified="2022-03-17T06:17:07.097Z" agent="5.0 (Windows NT 10.0; Win64; x64) AppleWebKit/537.36 (KHTML, like Gecko) Chrome/99.0.4844.74 Safari/537.36" etag="l54M6lqS8Vudh1Joi0GL" version="17.1.2" type="github">
  <diagram id="C5RBs43oDa-KdzZeNtuy" name="Page-1">
    <mxGraphModel dx="1865" dy="539" grid="1" gridSize="10" guides="1" tooltips="1" connect="1" arrows="1" fold="1" page="1" pageScale="1" pageWidth="827" pageHeight="1169" math="0" shadow="0">
      <root>
        <mxCell id="WIyWlLk6GJQsqaUBKTNV-0" />
        <mxCell id="WIyWlLk6GJQsqaUBKTNV-1" parent="WIyWlLk6GJQsqaUBKTNV-0" />
        <mxCell id="S9Yp1KbLEM8F9jzIeAQ_-1" value="«interface»&lt;br&gt;&lt;b&gt;Collection&lt;/b&gt;" style="html=1;fillColor=#60a917;fontColor=#ffffff;strokeColor=#2D7600;" vertex="1" parent="WIyWlLk6GJQsqaUBKTNV-1">
          <mxGeometry x="290" y="170" width="110" height="50" as="geometry" />
        </mxCell>
        <mxCell id="S9Yp1KbLEM8F9jzIeAQ_-5" style="rounded=0;orthogonalLoop=1;jettySize=auto;html=1;entryX=0.5;entryY=1;entryDx=0;entryDy=0;endArrow=block;endFill=0;" edge="1" parent="WIyWlLk6GJQsqaUBKTNV-1" source="S9Yp1KbLEM8F9jzIeAQ_-2" target="S9Yp1KbLEM8F9jzIeAQ_-1">
          <mxGeometry relative="1" as="geometry" />
        </mxCell>
        <mxCell id="S9Yp1KbLEM8F9jzIeAQ_-2" value="«interface»&lt;br&gt;&lt;b&gt;Set&lt;/b&gt;" style="html=1;fillColor=#60a917;fontColor=#ffffff;strokeColor=#2D7600;" vertex="1" parent="WIyWlLk6GJQsqaUBKTNV-1">
          <mxGeometry x="10" y="320" width="110" height="50" as="geometry" />
        </mxCell>
        <mxCell id="S9Yp1KbLEM8F9jzIeAQ_-7" style="edgeStyle=none;rounded=0;orthogonalLoop=1;jettySize=auto;html=1;endArrow=block;endFill=0;" edge="1" parent="WIyWlLk6GJQsqaUBKTNV-1" source="S9Yp1KbLEM8F9jzIeAQ_-3">
          <mxGeometry relative="1" as="geometry">
            <mxPoint x="350" y="220" as="targetPoint" />
          </mxGeometry>
        </mxCell>
        <mxCell id="S9Yp1KbLEM8F9jzIeAQ_-3" value="«interface»&lt;br&gt;&lt;b&gt;Queue&lt;/b&gt;" style="html=1;fillColor=#60a917;fontColor=#ffffff;strokeColor=#2D7600;" vertex="1" parent="WIyWlLk6GJQsqaUBKTNV-1">
          <mxGeometry x="359" y="330" width="110" height="50" as="geometry" />
        </mxCell>
        <mxCell id="S9Yp1KbLEM8F9jzIeAQ_-8" style="edgeStyle=none;rounded=0;orthogonalLoop=1;jettySize=auto;html=1;entryX=0.633;entryY=1.06;entryDx=0;entryDy=0;entryPerimeter=0;endArrow=block;endFill=0;" edge="1" parent="WIyWlLk6GJQsqaUBKTNV-1" source="S9Yp1KbLEM8F9jzIeAQ_-4" target="S9Yp1KbLEM8F9jzIeAQ_-1">
          <mxGeometry relative="1" as="geometry" />
        </mxCell>
        <mxCell id="S9Yp1KbLEM8F9jzIeAQ_-4" value="«interface»&lt;br&gt;&lt;b&gt;List&lt;/b&gt;" style="html=1;fillColor=#60a917;fontColor=#ffffff;strokeColor=#2D7600;" vertex="1" parent="WIyWlLk6GJQsqaUBKTNV-1">
          <mxGeometry x="550" y="330" width="110" height="50" as="geometry" />
        </mxCell>
        <mxCell id="S9Yp1KbLEM8F9jzIeAQ_-48" style="edgeStyle=none;rounded=0;orthogonalLoop=1;jettySize=auto;html=1;entryX=0.424;entryY=1.02;entryDx=0;entryDy=0;entryPerimeter=0;endArrow=block;endFill=0;" edge="1" parent="WIyWlLk6GJQsqaUBKTNV-1" source="S9Yp1KbLEM8F9jzIeAQ_-22" target="S9Yp1KbLEM8F9jzIeAQ_-2">
          <mxGeometry relative="1" as="geometry" />
        </mxCell>
        <mxCell id="S9Yp1KbLEM8F9jzIeAQ_-22" value="«interface»&lt;br&gt;&lt;b&gt;SortedSet&lt;/b&gt;" style="html=1;fillColor=#60a917;fontColor=#ffffff;strokeColor=#2D7600;" vertex="1" parent="WIyWlLk6GJQsqaUBKTNV-1">
          <mxGeometry x="10" y="437" width="80" height="40" as="geometry" />
        </mxCell>
        <mxCell id="S9Yp1KbLEM8F9jzIeAQ_-49" style="edgeStyle=none;rounded=0;orthogonalLoop=1;jettySize=auto;html=1;entryX=0.5;entryY=1;entryDx=0;entryDy=0;endArrow=block;endFill=0;dashed=1;" edge="1" parent="WIyWlLk6GJQsqaUBKTNV-1" source="S9Yp1KbLEM8F9jzIeAQ_-31" target="S9Yp1KbLEM8F9jzIeAQ_-22">
          <mxGeometry relative="1" as="geometry" />
        </mxCell>
        <mxCell id="S9Yp1KbLEM8F9jzIeAQ_-31" value="TreeSet" style="swimlane;fontStyle=1;align=center;verticalAlign=top;childLayout=stackLayout;horizontal=1;startSize=26;horizontalStack=0;resizeParent=1;resizeParentMax=0;resizeLast=0;collapsible=1;marginBottom=0;fillColor=#1ba1e2;fontColor=#ffffff;strokeColor=#006EAF;" vertex="1" parent="WIyWlLk6GJQsqaUBKTNV-1">
          <mxGeometry x="-10" y="520" width="90" height="34" as="geometry" />
        </mxCell>
        <mxCell id="S9Yp1KbLEM8F9jzIeAQ_-33" value="" style="line;strokeWidth=1;fillColor=none;align=left;verticalAlign=middle;spacingTop=-1;spacingLeft=3;spacingRight=3;rotatable=0;labelPosition=right;points=[];portConstraint=eastwest;" vertex="1" parent="S9Yp1KbLEM8F9jzIeAQ_-31">
          <mxGeometry y="26" width="90" height="8" as="geometry" />
        </mxCell>
        <mxCell id="S9Yp1KbLEM8F9jzIeAQ_-39" style="edgeStyle=none;rounded=0;orthogonalLoop=1;jettySize=auto;html=1;entryX=0.75;entryY=1;entryDx=0;entryDy=0;endArrow=block;endFill=0;dashed=1;" edge="1" parent="WIyWlLk6GJQsqaUBKTNV-1" source="S9Yp1KbLEM8F9jzIeAQ_-35" target="S9Yp1KbLEM8F9jzIeAQ_-2">
          <mxGeometry relative="1" as="geometry" />
        </mxCell>
        <mxCell id="S9Yp1KbLEM8F9jzIeAQ_-35" value="HashSet" style="swimlane;fontStyle=1;align=center;verticalAlign=top;childLayout=stackLayout;horizontal=1;startSize=26;horizontalStack=0;resizeParent=1;resizeParentMax=0;resizeLast=0;collapsible=1;marginBottom=0;fillColor=#1ba1e2;fontColor=#ffffff;strokeColor=#006EAF;" vertex="1" parent="WIyWlLk6GJQsqaUBKTNV-1">
          <mxGeometry x="160" y="430" width="90" height="34" as="geometry" />
        </mxCell>
        <mxCell id="S9Yp1KbLEM8F9jzIeAQ_-37" value="" style="line;strokeWidth=1;fillColor=none;align=left;verticalAlign=middle;spacingTop=-1;spacingLeft=3;spacingRight=3;rotatable=0;labelPosition=right;points=[];portConstraint=eastwest;" vertex="1" parent="S9Yp1KbLEM8F9jzIeAQ_-35">
          <mxGeometry y="26" width="90" height="8" as="geometry" />
        </mxCell>
        <mxCell id="S9Yp1KbLEM8F9jzIeAQ_-42" style="edgeStyle=none;rounded=0;orthogonalLoop=1;jettySize=auto;html=1;entryX=0.25;entryY=1;entryDx=0;entryDy=0;dashed=1;endArrow=block;endFill=0;" edge="1" parent="WIyWlLk6GJQsqaUBKTNV-1" source="S9Yp1KbLEM8F9jzIeAQ_-40" target="S9Yp1KbLEM8F9jzIeAQ_-2">
          <mxGeometry relative="1" as="geometry" />
        </mxCell>
        <mxCell id="S9Yp1KbLEM8F9jzIeAQ_-40" value="EnumSet" style="swimlane;fontStyle=1;align=center;verticalAlign=top;childLayout=stackLayout;horizontal=1;startSize=26;horizontalStack=0;resizeParent=1;resizeParentMax=0;resizeLast=0;collapsible=1;marginBottom=0;fillColor=#1ba1e2;fontColor=#ffffff;strokeColor=#006EAF;" vertex="1" parent="WIyWlLk6GJQsqaUBKTNV-1">
          <mxGeometry x="-100" y="437" width="90" height="34" as="geometry" />
        </mxCell>
        <mxCell id="S9Yp1KbLEM8F9jzIeAQ_-41" value="" style="line;strokeWidth=1;fillColor=none;align=left;verticalAlign=middle;spacingTop=-1;spacingLeft=3;spacingRight=3;rotatable=0;labelPosition=right;points=[];portConstraint=eastwest;" vertex="1" parent="S9Yp1KbLEM8F9jzIeAQ_-40">
          <mxGeometry y="26" width="90" height="8" as="geometry" />
        </mxCell>
        <mxCell id="S9Yp1KbLEM8F9jzIeAQ_-47" style="edgeStyle=none;rounded=0;orthogonalLoop=1;jettySize=auto;html=1;entryX=0.5;entryY=1;entryDx=0;entryDy=0;endArrow=block;endFill=0;" edge="1" parent="WIyWlLk6GJQsqaUBKTNV-1" source="S9Yp1KbLEM8F9jzIeAQ_-43" target="S9Yp1KbLEM8F9jzIeAQ_-35">
          <mxGeometry relative="1" as="geometry" />
        </mxCell>
        <mxCell id="S9Yp1KbLEM8F9jzIeAQ_-43" value="LinkedHashSet" style="swimlane;fontStyle=1;align=center;verticalAlign=top;childLayout=stackLayout;horizontal=1;startSize=26;horizontalStack=0;resizeParent=1;resizeParentMax=0;resizeLast=0;collapsible=1;marginBottom=0;fillColor=#1ba1e2;fontColor=#ffffff;strokeColor=#006EAF;" vertex="1" parent="WIyWlLk6GJQsqaUBKTNV-1">
          <mxGeometry x="140" y="520" width="130" height="34" as="geometry" />
        </mxCell>
        <mxCell id="S9Yp1KbLEM8F9jzIeAQ_-45" value="" style="line;strokeWidth=1;fillColor=none;align=left;verticalAlign=middle;spacingTop=-1;spacingLeft=3;spacingRight=3;rotatable=0;labelPosition=right;points=[];portConstraint=eastwest;" vertex="1" parent="S9Yp1KbLEM8F9jzIeAQ_-43">
          <mxGeometry y="26" width="130" height="8" as="geometry" />
        </mxCell>
        <mxCell id="S9Yp1KbLEM8F9jzIeAQ_-51" style="edgeStyle=none;rounded=0;orthogonalLoop=1;jettySize=auto;html=1;entryX=0.5;entryY=1;entryDx=0;entryDy=0;endArrow=block;endFill=0;" edge="1" parent="WIyWlLk6GJQsqaUBKTNV-1" source="S9Yp1KbLEM8F9jzIeAQ_-50" target="S9Yp1KbLEM8F9jzIeAQ_-3">
          <mxGeometry relative="1" as="geometry" />
        </mxCell>
        <mxCell id="S9Yp1KbLEM8F9jzIeAQ_-50" value="«interface»&lt;br&gt;&lt;b&gt;Deque&lt;/b&gt;" style="html=1;fillColor=#60a917;fontColor=#ffffff;strokeColor=#2D7600;" vertex="1" parent="WIyWlLk6GJQsqaUBKTNV-1">
          <mxGeometry x="330" y="422" width="80" height="38" as="geometry" />
        </mxCell>
        <mxCell id="S9Yp1KbLEM8F9jzIeAQ_-57" style="edgeStyle=none;rounded=0;orthogonalLoop=1;jettySize=auto;html=1;entryX=0.669;entryY=1.044;entryDx=0;entryDy=0;entryPerimeter=0;endArrow=block;endFill=0;dashed=1;" edge="1" parent="WIyWlLk6GJQsqaUBKTNV-1" source="S9Yp1KbLEM8F9jzIeAQ_-52" target="S9Yp1KbLEM8F9jzIeAQ_-3">
          <mxGeometry relative="1" as="geometry" />
        </mxCell>
        <mxCell id="S9Yp1KbLEM8F9jzIeAQ_-52" value="PriorityQueue" style="swimlane;fontStyle=1;align=center;verticalAlign=top;childLayout=stackLayout;horizontal=1;startSize=26;horizontalStack=0;resizeParent=1;resizeParentMax=0;resizeLast=0;collapsible=1;marginBottom=0;fillColor=#1ba1e2;fontColor=#ffffff;strokeColor=#006EAF;" vertex="1" parent="WIyWlLk6GJQsqaUBKTNV-1">
          <mxGeometry x="420" y="426" width="120" height="34" as="geometry" />
        </mxCell>
        <mxCell id="S9Yp1KbLEM8F9jzIeAQ_-54" value="" style="line;strokeWidth=1;fillColor=none;align=left;verticalAlign=middle;spacingTop=-1;spacingLeft=3;spacingRight=3;rotatable=0;labelPosition=right;points=[];portConstraint=eastwest;" vertex="1" parent="S9Yp1KbLEM8F9jzIeAQ_-52">
          <mxGeometry y="26" width="120" height="8" as="geometry" />
        </mxCell>
        <mxCell id="S9Yp1KbLEM8F9jzIeAQ_-56" style="edgeStyle=none;rounded=0;orthogonalLoop=1;jettySize=auto;html=1;exitX=0.5;exitY=1;exitDx=0;exitDy=0;endArrow=block;endFill=0;" edge="1" parent="S9Yp1KbLEM8F9jzIeAQ_-52" source="S9Yp1KbLEM8F9jzIeAQ_-52" target="S9Yp1KbLEM8F9jzIeAQ_-54">
          <mxGeometry relative="1" as="geometry" />
        </mxCell>
        <mxCell id="S9Yp1KbLEM8F9jzIeAQ_-62" style="edgeStyle=none;rounded=0;orthogonalLoop=1;jettySize=auto;html=1;entryX=0.5;entryY=1;entryDx=0;entryDy=0;dashed=1;endArrow=block;endFill=0;" edge="1" parent="WIyWlLk6GJQsqaUBKTNV-1" source="S9Yp1KbLEM8F9jzIeAQ_-58" target="S9Yp1KbLEM8F9jzIeAQ_-50">
          <mxGeometry relative="1" as="geometry" />
        </mxCell>
        <mxCell id="S9Yp1KbLEM8F9jzIeAQ_-58" value="ArrayDeque" style="swimlane;fontStyle=1;align=center;verticalAlign=top;childLayout=stackLayout;horizontal=1;startSize=26;horizontalStack=0;resizeParent=1;resizeParentMax=0;resizeLast=0;collapsible=1;marginBottom=0;fillColor=#1ba1e2;fontColor=#ffffff;strokeColor=#006EAF;" vertex="1" parent="WIyWlLk6GJQsqaUBKTNV-1">
          <mxGeometry x="285" y="520" width="120" height="34" as="geometry" />
        </mxCell>
        <mxCell id="S9Yp1KbLEM8F9jzIeAQ_-60" value="" style="line;strokeWidth=1;fillColor=none;align=left;verticalAlign=middle;spacingTop=-1;spacingLeft=3;spacingRight=3;rotatable=0;labelPosition=right;points=[];portConstraint=eastwest;" vertex="1" parent="S9Yp1KbLEM8F9jzIeAQ_-58">
          <mxGeometry y="26" width="120" height="8" as="geometry" />
        </mxCell>
        <mxCell id="S9Yp1KbLEM8F9jzIeAQ_-65" style="edgeStyle=none;rounded=0;orthogonalLoop=1;jettySize=auto;html=1;entryX=0.593;entryY=1.058;entryDx=0;entryDy=0;entryPerimeter=0;dashed=1;endArrow=block;endFill=0;" edge="1" parent="WIyWlLk6GJQsqaUBKTNV-1" source="S9Yp1KbLEM8F9jzIeAQ_-63" target="S9Yp1KbLEM8F9jzIeAQ_-50">
          <mxGeometry relative="1" as="geometry" />
        </mxCell>
        <mxCell id="S9Yp1KbLEM8F9jzIeAQ_-66" style="edgeStyle=none;rounded=0;orthogonalLoop=1;jettySize=auto;html=1;entryX=0.5;entryY=1;entryDx=0;entryDy=0;dashed=1;endArrow=block;endFill=0;" edge="1" parent="WIyWlLk6GJQsqaUBKTNV-1" source="S9Yp1KbLEM8F9jzIeAQ_-63" target="S9Yp1KbLEM8F9jzIeAQ_-4">
          <mxGeometry relative="1" as="geometry" />
        </mxCell>
        <mxCell id="S9Yp1KbLEM8F9jzIeAQ_-63" value="LinkedList" style="swimlane;fontStyle=1;align=center;verticalAlign=top;childLayout=stackLayout;horizontal=1;startSize=26;horizontalStack=0;resizeParent=1;resizeParentMax=0;resizeLast=0;collapsible=1;marginBottom=0;fillColor=#1ba1e2;fontColor=#ffffff;strokeColor=#006EAF;" vertex="1" parent="WIyWlLk6GJQsqaUBKTNV-1">
          <mxGeometry x="500" y="520" width="120" height="34" as="geometry" />
        </mxCell>
        <mxCell id="S9Yp1KbLEM8F9jzIeAQ_-64" value="" style="line;strokeWidth=1;fillColor=none;align=left;verticalAlign=middle;spacingTop=-1;spacingLeft=3;spacingRight=3;rotatable=0;labelPosition=right;points=[];portConstraint=eastwest;" vertex="1" parent="S9Yp1KbLEM8F9jzIeAQ_-63">
          <mxGeometry y="26" width="120" height="8" as="geometry" />
        </mxCell>
        <mxCell id="S9Yp1KbLEM8F9jzIeAQ_-71" style="edgeStyle=none;rounded=0;orthogonalLoop=1;jettySize=auto;html=1;entryX=0.576;entryY=1.012;entryDx=0;entryDy=0;entryPerimeter=0;dashed=1;endArrow=block;endFill=0;" edge="1" parent="WIyWlLk6GJQsqaUBKTNV-1" source="S9Yp1KbLEM8F9jzIeAQ_-67" target="S9Yp1KbLEM8F9jzIeAQ_-4">
          <mxGeometry relative="1" as="geometry" />
        </mxCell>
        <mxCell id="S9Yp1KbLEM8F9jzIeAQ_-67" value="ArrayList" style="swimlane;fontStyle=1;align=center;verticalAlign=top;childLayout=stackLayout;horizontal=1;startSize=26;horizontalStack=0;resizeParent=1;resizeParentMax=0;resizeLast=0;collapsible=1;marginBottom=0;fillColor=#1ba1e2;fontColor=#ffffff;strokeColor=#006EAF;" vertex="1" parent="WIyWlLk6GJQsqaUBKTNV-1">
          <mxGeometry x="600" y="426" width="110" height="34" as="geometry" />
        </mxCell>
        <mxCell id="S9Yp1KbLEM8F9jzIeAQ_-69" value="" style="line;strokeWidth=1;fillColor=none;align=left;verticalAlign=middle;spacingTop=-1;spacingLeft=3;spacingRight=3;rotatable=0;labelPosition=right;points=[];portConstraint=eastwest;" vertex="1" parent="S9Yp1KbLEM8F9jzIeAQ_-67">
          <mxGeometry y="26" width="110" height="8" as="geometry" />
        </mxCell>
        <mxCell id="S9Yp1KbLEM8F9jzIeAQ_-74" style="edgeStyle=none;rounded=0;orthogonalLoop=1;jettySize=auto;html=1;entryX=0.75;entryY=1;entryDx=0;entryDy=0;dashed=1;endArrow=block;endFill=0;" edge="1" parent="WIyWlLk6GJQsqaUBKTNV-1" source="S9Yp1KbLEM8F9jzIeAQ_-72" target="S9Yp1KbLEM8F9jzIeAQ_-4">
          <mxGeometry relative="1" as="geometry" />
        </mxCell>
        <mxCell id="S9Yp1KbLEM8F9jzIeAQ_-72" value="Vector" style="swimlane;fontStyle=1;align=center;verticalAlign=top;childLayout=stackLayout;horizontal=1;startSize=26;horizontalStack=0;resizeParent=1;resizeParentMax=0;resizeLast=0;collapsible=1;marginBottom=0;fillColor=#1ba1e2;fontColor=#ffffff;strokeColor=#006EAF;" vertex="1" parent="WIyWlLk6GJQsqaUBKTNV-1">
          <mxGeometry x="720" y="424" width="110" height="34" as="geometry" />
        </mxCell>
        <mxCell id="S9Yp1KbLEM8F9jzIeAQ_-73" value="" style="line;strokeWidth=1;fillColor=none;align=left;verticalAlign=middle;spacingTop=-1;spacingLeft=3;spacingRight=3;rotatable=0;labelPosition=right;points=[];portConstraint=eastwest;" vertex="1" parent="S9Yp1KbLEM8F9jzIeAQ_-72">
          <mxGeometry y="26" width="110" height="8" as="geometry" />
        </mxCell>
        <mxCell id="S9Yp1KbLEM8F9jzIeAQ_-75" value="Collection体系继承树" style="text;align=center;fontStyle=1;verticalAlign=middle;spacingLeft=3;spacingRight=3;strokeColor=none;rotatable=0;points=[[0,0.5],[1,0.5]];portConstraint=eastwest;fontSize=14;" vertex="1" parent="WIyWlLk6GJQsqaUBKTNV-1">
          <mxGeometry x="270" y="120" width="210" height="30" as="geometry" />
        </mxCell>
        <mxCell id="S9Yp1KbLEM8F9jzIeAQ_-76" value="&lt;b&gt;&lt;font color=&quot;#40ff79&quot;&gt;@xiaochen8848&lt;/font&gt;&lt;/b&gt;" style="text;html=1;strokeColor=none;fillColor=none;align=center;verticalAlign=middle;whiteSpace=wrap;rounded=0;fontSize=14;" vertex="1" parent="WIyWlLk6GJQsqaUBKTNV-1">
          <mxGeometry x="630" y="471" width="120" height="33" as="geometry" />
        </mxCell>
        <mxCell id="S9Yp1KbLEM8F9jzIeAQ_-77" value="Map体系继承树" style="text;align=center;fontStyle=1;verticalAlign=middle;spacingLeft=3;spacingRight=3;strokeColor=none;rotatable=0;points=[[0,0.5],[1,0.5]];portConstraint=eastwest;fontSize=14;" vertex="1" parent="WIyWlLk6GJQsqaUBKTNV-1">
          <mxGeometry x="240" y="650" width="210" height="30" as="geometry" />
        </mxCell>
        <mxCell id="S9Yp1KbLEM8F9jzIeAQ_-78" value="&lt;font color=&quot;#000000&quot;&gt;«interface»&lt;br&gt;&lt;b&gt;Map&lt;/b&gt;&lt;/font&gt;" style="html=1;fontSize=14;fontColor=#ffffff;fillColor=#60a917;strokeColor=#2D7600;" vertex="1" parent="WIyWlLk6GJQsqaUBKTNV-1">
          <mxGeometry x="300" y="690" width="110" height="50" as="geometry" />
        </mxCell>
        <mxCell id="S9Yp1KbLEM8F9jzIeAQ_-83" style="edgeStyle=none;rounded=0;orthogonalLoop=1;jettySize=auto;html=1;entryX=0.136;entryY=1.076;entryDx=0;entryDy=0;entryPerimeter=0;dashed=1;fontSize=14;fontColor=#000000;endArrow=block;endFill=0;" edge="1" parent="WIyWlLk6GJQsqaUBKTNV-1" source="S9Yp1KbLEM8F9jzIeAQ_-79" target="S9Yp1KbLEM8F9jzIeAQ_-78">
          <mxGeometry relative="1" as="geometry" />
        </mxCell>
        <mxCell id="S9Yp1KbLEM8F9jzIeAQ_-79" value="EnumMap" style="swimlane;fontStyle=1;align=center;verticalAlign=top;childLayout=stackLayout;horizontal=1;startSize=26;horizontalStack=0;resizeParent=1;resizeParentMax=0;resizeLast=0;collapsible=1;marginBottom=0;fontSize=14;fontColor=#ffffff;fillColor=#1ba1e2;strokeColor=#006EAF;" vertex="1" parent="WIyWlLk6GJQsqaUBKTNV-1">
          <mxGeometry x="-30" y="790" width="100" height="34" as="geometry" />
        </mxCell>
        <mxCell id="S9Yp1KbLEM8F9jzIeAQ_-81" value="" style="line;strokeWidth=1;fillColor=none;align=left;verticalAlign=middle;spacingTop=-1;spacingLeft=3;spacingRight=3;rotatable=0;labelPosition=right;points=[];portConstraint=eastwest;fontSize=14;fontColor=#000000;" vertex="1" parent="S9Yp1KbLEM8F9jzIeAQ_-79">
          <mxGeometry y="26" width="100" height="8" as="geometry" />
        </mxCell>
        <mxCell id="S9Yp1KbLEM8F9jzIeAQ_-86" style="edgeStyle=none;rounded=0;orthogonalLoop=1;jettySize=auto;html=1;entryX=0.893;entryY=1.028;entryDx=0;entryDy=0;entryPerimeter=0;dashed=1;fontSize=14;fontColor=#000000;endArrow=block;endFill=0;" edge="1" parent="WIyWlLk6GJQsqaUBKTNV-1" source="S9Yp1KbLEM8F9jzIeAQ_-84" target="S9Yp1KbLEM8F9jzIeAQ_-78">
          <mxGeometry relative="1" as="geometry" />
        </mxCell>
        <mxCell id="S9Yp1KbLEM8F9jzIeAQ_-84" value="WeekHashMap" style="swimlane;fontStyle=1;align=center;verticalAlign=top;childLayout=stackLayout;horizontal=1;startSize=26;horizontalStack=0;resizeParent=1;resizeParentMax=0;resizeLast=0;collapsible=1;marginBottom=0;fontSize=14;fontColor=#ffffff;fillColor=#1ba1e2;strokeColor=#006EAF;" vertex="1" parent="WIyWlLk6GJQsqaUBKTNV-1">
          <mxGeometry x="550" y="810" width="150" height="34" as="geometry" />
        </mxCell>
        <mxCell id="S9Yp1KbLEM8F9jzIeAQ_-85" value="" style="line;strokeWidth=1;fillColor=none;align=left;verticalAlign=middle;spacingTop=-1;spacingLeft=3;spacingRight=3;rotatable=0;labelPosition=right;points=[];portConstraint=eastwest;fontSize=14;fontColor=#000000;" vertex="1" parent="S9Yp1KbLEM8F9jzIeAQ_-84">
          <mxGeometry y="26" width="150" height="8" as="geometry" />
        </mxCell>
        <mxCell id="S9Yp1KbLEM8F9jzIeAQ_-89" style="edgeStyle=none;rounded=0;orthogonalLoop=1;jettySize=auto;html=1;entryX=0.42;entryY=0.996;entryDx=0;entryDy=0;entryPerimeter=0;dashed=1;fontSize=14;fontColor=#000000;endArrow=block;endFill=0;" edge="1" parent="WIyWlLk6GJQsqaUBKTNV-1" source="S9Yp1KbLEM8F9jzIeAQ_-87" target="S9Yp1KbLEM8F9jzIeAQ_-78">
          <mxGeometry relative="1" as="geometry" />
        </mxCell>
        <mxCell id="S9Yp1KbLEM8F9jzIeAQ_-87" value="HashMap" style="swimlane;fontStyle=1;align=center;verticalAlign=top;childLayout=stackLayout;horizontal=1;startSize=26;horizontalStack=0;resizeParent=1;resizeParentMax=0;resizeLast=0;collapsible=1;marginBottom=0;fontSize=14;fontColor=#ffffff;fillColor=#1ba1e2;strokeColor=#006EAF;" vertex="1" parent="WIyWlLk6GJQsqaUBKTNV-1">
          <mxGeometry x="270" y="860" width="100" height="34" as="geometry" />
        </mxCell>
        <mxCell id="S9Yp1KbLEM8F9jzIeAQ_-88" value="" style="line;strokeWidth=1;fillColor=none;align=left;verticalAlign=middle;spacingTop=-1;spacingLeft=3;spacingRight=3;rotatable=0;labelPosition=right;points=[];portConstraint=eastwest;fontSize=14;fontColor=#000000;" vertex="1" parent="S9Yp1KbLEM8F9jzIeAQ_-87">
          <mxGeometry y="26" width="100" height="8" as="geometry" />
        </mxCell>
        <mxCell id="S9Yp1KbLEM8F9jzIeAQ_-92" style="edgeStyle=none;rounded=0;orthogonalLoop=1;jettySize=auto;html=1;entryX=0.689;entryY=1.076;entryDx=0;entryDy=0;entryPerimeter=0;dashed=1;fontSize=14;fontColor=#000000;endArrow=block;endFill=0;" edge="1" parent="WIyWlLk6GJQsqaUBKTNV-1" source="S9Yp1KbLEM8F9jzIeAQ_-90" target="S9Yp1KbLEM8F9jzIeAQ_-78">
          <mxGeometry relative="1" as="geometry" />
        </mxCell>
        <mxCell id="S9Yp1KbLEM8F9jzIeAQ_-90" value="Hashtable" style="swimlane;fontStyle=1;align=center;verticalAlign=top;childLayout=stackLayout;horizontal=1;startSize=26;horizontalStack=0;resizeParent=1;resizeParentMax=0;resizeLast=0;collapsible=1;marginBottom=0;fontSize=14;fontColor=#ffffff;fillColor=#1ba1e2;strokeColor=#006EAF;" vertex="1" parent="WIyWlLk6GJQsqaUBKTNV-1">
          <mxGeometry x="410" y="860" width="100" height="34" as="geometry" />
        </mxCell>
        <mxCell id="S9Yp1KbLEM8F9jzIeAQ_-91" value="" style="line;strokeWidth=1;fillColor=none;align=left;verticalAlign=middle;spacingTop=-1;spacingLeft=3;spacingRight=3;rotatable=0;labelPosition=right;points=[];portConstraint=eastwest;fontSize=14;fontColor=#000000;" vertex="1" parent="S9Yp1KbLEM8F9jzIeAQ_-90">
          <mxGeometry y="26" width="100" height="8" as="geometry" />
        </mxCell>
        <mxCell id="S9Yp1KbLEM8F9jzIeAQ_-100" style="edgeStyle=none;rounded=0;orthogonalLoop=1;jettySize=auto;html=1;entryX=0.25;entryY=1;entryDx=0;entryDy=0;dashed=1;fontSize=14;fontColor=#000000;endArrow=block;endFill=0;" edge="1" parent="WIyWlLk6GJQsqaUBKTNV-1" source="S9Yp1KbLEM8F9jzIeAQ_-93" target="S9Yp1KbLEM8F9jzIeAQ_-78">
          <mxGeometry relative="1" as="geometry" />
        </mxCell>
        <mxCell id="S9Yp1KbLEM8F9jzIeAQ_-93" value="IdentityHashMap" style="swimlane;fontStyle=1;align=center;verticalAlign=top;childLayout=stackLayout;horizontal=1;startSize=26;horizontalStack=0;resizeParent=1;resizeParentMax=0;resizeLast=0;collapsible=1;marginBottom=0;fontSize=14;fontColor=#ffffff;fillColor=#1ba1e2;strokeColor=#006EAF;" vertex="1" parent="WIyWlLk6GJQsqaUBKTNV-1">
          <mxGeometry x="-15" y="870" width="155" height="34" as="geometry" />
        </mxCell>
        <mxCell id="S9Yp1KbLEM8F9jzIeAQ_-94" value="" style="line;strokeWidth=1;fillColor=none;align=left;verticalAlign=middle;spacingTop=-1;spacingLeft=3;spacingRight=3;rotatable=0;labelPosition=right;points=[];portConstraint=eastwest;fontSize=14;fontColor=#000000;" vertex="1" parent="S9Yp1KbLEM8F9jzIeAQ_-93">
          <mxGeometry y="26" width="155" height="8" as="geometry" />
        </mxCell>
        <mxCell id="S9Yp1KbLEM8F9jzIeAQ_-103" style="edgeStyle=none;rounded=0;orthogonalLoop=1;jettySize=auto;html=1;entryX=0.5;entryY=1;entryDx=0;entryDy=0;fontSize=14;fontColor=#000000;endArrow=block;endFill=0;" edge="1" parent="WIyWlLk6GJQsqaUBKTNV-1" source="S9Yp1KbLEM8F9jzIeAQ_-101" target="S9Yp1KbLEM8F9jzIeAQ_-87">
          <mxGeometry relative="1" as="geometry" />
        </mxCell>
        <mxCell id="S9Yp1KbLEM8F9jzIeAQ_-101" value="LinkedHashMap" style="swimlane;fontStyle=1;align=center;verticalAlign=top;childLayout=stackLayout;horizontal=1;startSize=26;horizontalStack=0;resizeParent=1;resizeParentMax=0;resizeLast=0;collapsible=1;marginBottom=0;fontSize=14;fontColor=#ffffff;fillColor=#1ba1e2;strokeColor=#006EAF;" vertex="1" parent="WIyWlLk6GJQsqaUBKTNV-1">
          <mxGeometry x="150" y="980" width="150" height="34" as="geometry" />
        </mxCell>
        <mxCell id="S9Yp1KbLEM8F9jzIeAQ_-102" value="" style="line;strokeWidth=1;fillColor=none;align=left;verticalAlign=middle;spacingTop=-1;spacingLeft=3;spacingRight=3;rotatable=0;labelPosition=right;points=[];portConstraint=eastwest;fontSize=14;fontColor=#000000;" vertex="1" parent="S9Yp1KbLEM8F9jzIeAQ_-101">
          <mxGeometry y="26" width="150" height="8" as="geometry" />
        </mxCell>
        <mxCell id="S9Yp1KbLEM8F9jzIeAQ_-113" style="edgeStyle=none;rounded=0;orthogonalLoop=1;jettySize=auto;html=1;entryX=0.5;entryY=1;entryDx=0;entryDy=0;fontSize=14;fontColor=#000000;endArrow=block;endFill=0;" edge="1" parent="WIyWlLk6GJQsqaUBKTNV-1" source="S9Yp1KbLEM8F9jzIeAQ_-104" target="S9Yp1KbLEM8F9jzIeAQ_-90">
          <mxGeometry relative="1" as="geometry" />
        </mxCell>
        <mxCell id="S9Yp1KbLEM8F9jzIeAQ_-104" value="Properties" style="swimlane;fontStyle=1;align=center;verticalAlign=top;childLayout=stackLayout;horizontal=1;startSize=26;horizontalStack=0;resizeParent=1;resizeParentMax=0;resizeLast=0;collapsible=1;marginBottom=0;fontSize=14;fontColor=#ffffff;fillColor=#1ba1e2;strokeColor=#006EAF;" vertex="1" parent="WIyWlLk6GJQsqaUBKTNV-1">
          <mxGeometry x="390" y="980" width="150" height="34" as="geometry" />
        </mxCell>
        <mxCell id="S9Yp1KbLEM8F9jzIeAQ_-105" value="" style="line;strokeWidth=1;fillColor=none;align=left;verticalAlign=middle;spacingTop=-1;spacingLeft=3;spacingRight=3;rotatable=0;labelPosition=right;points=[];portConstraint=eastwest;fontSize=14;fontColor=#000000;" vertex="1" parent="S9Yp1KbLEM8F9jzIeAQ_-104">
          <mxGeometry y="26" width="150" height="8" as="geometry" />
        </mxCell>
        <mxCell id="S9Yp1KbLEM8F9jzIeAQ_-109" style="edgeStyle=none;rounded=0;orthogonalLoop=1;jettySize=auto;html=1;entryX=0.75;entryY=1;entryDx=0;entryDy=0;fontSize=14;fontColor=#000000;endArrow=block;endFill=0;dashed=1;" edge="1" parent="WIyWlLk6GJQsqaUBKTNV-1" source="S9Yp1KbLEM8F9jzIeAQ_-107" target="S9Yp1KbLEM8F9jzIeAQ_-78">
          <mxGeometry relative="1" as="geometry" />
        </mxCell>
        <mxCell id="S9Yp1KbLEM8F9jzIeAQ_-107" value="SortedMap" style="swimlane;fontStyle=1;align=center;verticalAlign=top;childLayout=stackLayout;horizontal=1;startSize=26;horizontalStack=0;resizeParent=1;resizeParentMax=0;resizeLast=0;collapsible=1;marginBottom=0;fontSize=14;fontColor=#ffffff;fillColor=#1ba1e2;strokeColor=#006EAF;" vertex="1" parent="WIyWlLk6GJQsqaUBKTNV-1">
          <mxGeometry x="550" y="870" width="100" height="34" as="geometry" />
        </mxCell>
        <mxCell id="S9Yp1KbLEM8F9jzIeAQ_-108" value="" style="line;strokeWidth=1;fillColor=none;align=left;verticalAlign=middle;spacingTop=-1;spacingLeft=3;spacingRight=3;rotatable=0;labelPosition=right;points=[];portConstraint=eastwest;fontSize=14;fontColor=#000000;" vertex="1" parent="S9Yp1KbLEM8F9jzIeAQ_-107">
          <mxGeometry y="26" width="100" height="8" as="geometry" />
        </mxCell>
        <mxCell id="S9Yp1KbLEM8F9jzIeAQ_-112" style="edgeStyle=none;rounded=0;orthogonalLoop=1;jettySize=auto;html=1;entryX=0.5;entryY=1;entryDx=0;entryDy=0;fontSize=14;fontColor=#000000;endArrow=block;endFill=0;" edge="1" parent="WIyWlLk6GJQsqaUBKTNV-1" source="S9Yp1KbLEM8F9jzIeAQ_-110" target="S9Yp1KbLEM8F9jzIeAQ_-107">
          <mxGeometry relative="1" as="geometry" />
        </mxCell>
        <mxCell id="S9Yp1KbLEM8F9jzIeAQ_-110" value="TreeMap" style="swimlane;fontStyle=1;align=center;verticalAlign=top;childLayout=stackLayout;horizontal=1;startSize=26;horizontalStack=0;resizeParent=1;resizeParentMax=0;resizeLast=0;collapsible=1;marginBottom=0;fontSize=14;fontColor=#ffffff;fillColor=#1ba1e2;strokeColor=#006EAF;" vertex="1" parent="WIyWlLk6GJQsqaUBKTNV-1">
          <mxGeometry x="580" y="980" width="150" height="34" as="geometry" />
        </mxCell>
        <mxCell id="S9Yp1KbLEM8F9jzIeAQ_-111" value="" style="line;strokeWidth=1;fillColor=none;align=left;verticalAlign=middle;spacingTop=-1;spacingLeft=3;spacingRight=3;rotatable=0;labelPosition=right;points=[];portConstraint=eastwest;fontSize=14;fontColor=#000000;" vertex="1" parent="S9Yp1KbLEM8F9jzIeAQ_-110">
          <mxGeometry y="26" width="150" height="8" as="geometry" />
        </mxCell>
        <mxCell id="S9Yp1KbLEM8F9jzIeAQ_-115" value="@xiaochen8848" style="text;html=1;strokeColor=#3700CC;fillColor=#6a00ff;align=center;verticalAlign=middle;whiteSpace=wrap;rounded=0;fontSize=14;fontColor=#ffffff;" vertex="1" parent="WIyWlLk6GJQsqaUBKTNV-1">
          <mxGeometry x="90" y="930" width="140" height="30" as="geometry" />
        </mxCell>
      </root>
    </mxGraphModel>
  </diagram>
</mxfile>
